M48
; DRILL file {KiCad (5.1.2)-2} date 2019-07-28 6:44:46 PM
; FORMAT={-:-/ absolute / inch / decimal}
; #@! TF.CreationDate,2019-07-28T18:44:46-04:00
; #@! TF.GenerationSoftware,Kicad,Pcbnew,(5.1.2)-2
FMAT,2
INCH
T1C0.0157
T2C0.0275
T3C0.0393
T4C0.0394
T5C0.0400
T6C0.0511
T7C0.0787
T8C0.0472
%
G90
G05
T1
X5.6Y-3.85
X5.83Y-3.43
X5.93Y-2.91
X5.94Y-3.26
X6.2025Y-3.2375
X6.235Y-3.27
X6.2404Y-3.7496
X6.2404Y-3.8304
T2
X5.67Y-3.3
X5.67Y-3.5
T3
X5.8416Y-2.5751
X6.0385Y-2.4452
X6.0385Y-2.6933
T4
X5.88Y-3.05
X5.98Y-3.05
X6.08Y-3.05
X5.2Y-3.0
X5.2Y-3.1
X5.2Y-3.2
X5.2Y-3.3
X5.2Y-3.4
X5.2Y-3.5
X5.2Y-3.6
X5.2Y-3.7
X5.2Y-3.8
X5.2Y-3.9
X5.2Y-4.0
X5.2Y-4.1
X5.2Y-4.2
X5.2Y-4.3
X5.5Y-3.0
X5.5Y-3.1
X5.5Y-3.2
X5.5Y-3.3
X5.5Y-3.4
X5.5Y-3.5
X5.5Y-3.6
X5.5Y-3.7
X5.5Y-3.8
X5.5Y-3.9
X5.5Y-4.0
X5.5Y-4.1
X5.5Y-4.2
X5.5Y-4.3
X5.725Y-4.1704
X5.725Y-4.3476
X5.981Y-4.1704
X5.981Y-4.3476
X5.71Y-3.69
X5.71Y-3.79
X5.71Y-3.89
X5.71Y-3.99
X6.01Y-3.69
X6.01Y-3.79
X6.01Y-3.89
X6.01Y-3.99
T5
X5.32Y-2.5
X5.32Y-2.6
X5.32Y-2.7
X5.2Y-4.5
X5.3Y-4.5
X5.4Y-4.5
X5.5Y-4.5
X5.05Y-3.0
X5.05Y-3.1
X5.05Y-3.2
X5.05Y-3.3
X5.05Y-3.4
X5.05Y-3.9
X5.05Y-4.0
X5.05Y-4.1
X5.05Y-4.2
X5.05Y-4.3
X5.56Y-2.51
X5.56Y-2.61
X5.56Y-2.71
X5.08Y-2.5
X5.08Y-2.6
X5.08Y-2.7
X5.2Y-2.28
X5.3Y-2.28
X5.4Y-2.28
X5.5Y-2.28
T6
X5.6932Y-4.5432
X5.7916Y-4.5432
X5.89Y-4.74
X5.9884Y-4.5432
X6.0868Y-4.5432
T7
X6.28Y-2.25
X4.98Y-2.25
X4.98Y-4.9
X6.28Y-4.9
T8
X5.6932Y-4.74
X5.6932Y-4.8384
X5.89Y-4.5432
X6.0868Y-4.74
X6.0868Y-4.8384
T0
M30
