G04 #@! TF.GenerationSoftware,KiCad,Pcbnew,(5.1.2)-2*
G04 #@! TF.CreationDate,2019-07-28T18:44:43-04:00*
G04 #@! TF.ProjectId,LED-Music,4c45442d-4d75-4736-9963-2e6b69636164,rev?*
G04 #@! TF.SameCoordinates,Original*
G04 #@! TF.FileFunction,Paste,Top*
G04 #@! TF.FilePolarity,Positive*
%FSLAX46Y46*%
G04 Gerber Fmt 4.6, Leading zero omitted, Abs format (unit mm)*
G04 Created by KiCad (PCBNEW (5.1.2)-2) date 2019-07-28 18:44:43*
%MOMM*%
%LPD*%
G04 APERTURE LIST*
%ADD10C,0.100000*%
%ADD11C,1.150000*%
%ADD12R,1.200000X1.200000*%
G04 APERTURE END LIST*
D10*
G36*
X152731505Y-73215204D02*
G01*
X152755773Y-73218804D01*
X152779572Y-73224765D01*
X152802671Y-73233030D01*
X152824850Y-73243520D01*
X152845893Y-73256132D01*
X152865599Y-73270747D01*
X152883777Y-73287223D01*
X152900253Y-73305401D01*
X152914868Y-73325107D01*
X152927480Y-73346150D01*
X152937970Y-73368329D01*
X152946235Y-73391428D01*
X152952196Y-73415227D01*
X152955796Y-73439495D01*
X152957000Y-73463999D01*
X152957000Y-74364001D01*
X152955796Y-74388505D01*
X152952196Y-74412773D01*
X152946235Y-74436572D01*
X152937970Y-74459671D01*
X152927480Y-74481850D01*
X152914868Y-74502893D01*
X152900253Y-74522599D01*
X152883777Y-74540777D01*
X152865599Y-74557253D01*
X152845893Y-74571868D01*
X152824850Y-74584480D01*
X152802671Y-74594970D01*
X152779572Y-74603235D01*
X152755773Y-74609196D01*
X152731505Y-74612796D01*
X152707001Y-74614000D01*
X152056999Y-74614000D01*
X152032495Y-74612796D01*
X152008227Y-74609196D01*
X151984428Y-74603235D01*
X151961329Y-74594970D01*
X151939150Y-74584480D01*
X151918107Y-74571868D01*
X151898401Y-74557253D01*
X151880223Y-74540777D01*
X151863747Y-74522599D01*
X151849132Y-74502893D01*
X151836520Y-74481850D01*
X151826030Y-74459671D01*
X151817765Y-74436572D01*
X151811804Y-74412773D01*
X151808204Y-74388505D01*
X151807000Y-74364001D01*
X151807000Y-73463999D01*
X151808204Y-73439495D01*
X151811804Y-73415227D01*
X151817765Y-73391428D01*
X151826030Y-73368329D01*
X151836520Y-73346150D01*
X151849132Y-73325107D01*
X151863747Y-73305401D01*
X151880223Y-73287223D01*
X151898401Y-73270747D01*
X151918107Y-73256132D01*
X151939150Y-73243520D01*
X151961329Y-73233030D01*
X151984428Y-73224765D01*
X152008227Y-73218804D01*
X152032495Y-73215204D01*
X152056999Y-73214000D01*
X152707001Y-73214000D01*
X152731505Y-73215204D01*
X152731505Y-73215204D01*
G37*
D11*
X152382000Y-73914000D03*
D10*
G36*
X154781505Y-73215204D02*
G01*
X154805773Y-73218804D01*
X154829572Y-73224765D01*
X154852671Y-73233030D01*
X154874850Y-73243520D01*
X154895893Y-73256132D01*
X154915599Y-73270747D01*
X154933777Y-73287223D01*
X154950253Y-73305401D01*
X154964868Y-73325107D01*
X154977480Y-73346150D01*
X154987970Y-73368329D01*
X154996235Y-73391428D01*
X155002196Y-73415227D01*
X155005796Y-73439495D01*
X155007000Y-73463999D01*
X155007000Y-74364001D01*
X155005796Y-74388505D01*
X155002196Y-74412773D01*
X154996235Y-74436572D01*
X154987970Y-74459671D01*
X154977480Y-74481850D01*
X154964868Y-74502893D01*
X154950253Y-74522599D01*
X154933777Y-74540777D01*
X154915599Y-74557253D01*
X154895893Y-74571868D01*
X154874850Y-74584480D01*
X154852671Y-74594970D01*
X154829572Y-74603235D01*
X154805773Y-74609196D01*
X154781505Y-74612796D01*
X154757001Y-74614000D01*
X154106999Y-74614000D01*
X154082495Y-74612796D01*
X154058227Y-74609196D01*
X154034428Y-74603235D01*
X154011329Y-74594970D01*
X153989150Y-74584480D01*
X153968107Y-74571868D01*
X153948401Y-74557253D01*
X153930223Y-74540777D01*
X153913747Y-74522599D01*
X153899132Y-74502893D01*
X153886520Y-74481850D01*
X153876030Y-74459671D01*
X153867765Y-74436572D01*
X153861804Y-74412773D01*
X153858204Y-74388505D01*
X153857000Y-74364001D01*
X153857000Y-73463999D01*
X153858204Y-73439495D01*
X153861804Y-73415227D01*
X153867765Y-73391428D01*
X153876030Y-73368329D01*
X153886520Y-73346150D01*
X153899132Y-73325107D01*
X153913747Y-73305401D01*
X153930223Y-73287223D01*
X153948401Y-73270747D01*
X153968107Y-73256132D01*
X153989150Y-73243520D01*
X154011329Y-73233030D01*
X154034428Y-73224765D01*
X154058227Y-73218804D01*
X154082495Y-73215204D01*
X154106999Y-73214000D01*
X154757001Y-73214000D01*
X154781505Y-73215204D01*
X154781505Y-73215204D01*
G37*
D11*
X154432000Y-73914000D03*
D12*
X150876000Y-86648000D03*
X150876000Y-84548000D03*
D10*
G36*
X151350505Y-90113204D02*
G01*
X151374773Y-90116804D01*
X151398572Y-90122765D01*
X151421671Y-90131030D01*
X151443850Y-90141520D01*
X151464893Y-90154132D01*
X151484599Y-90168747D01*
X151502777Y-90185223D01*
X151519253Y-90203401D01*
X151533868Y-90223107D01*
X151546480Y-90244150D01*
X151556970Y-90266329D01*
X151565235Y-90289428D01*
X151571196Y-90313227D01*
X151574796Y-90337495D01*
X151576000Y-90361999D01*
X151576000Y-91012001D01*
X151574796Y-91036505D01*
X151571196Y-91060773D01*
X151565235Y-91084572D01*
X151556970Y-91107671D01*
X151546480Y-91129850D01*
X151533868Y-91150893D01*
X151519253Y-91170599D01*
X151502777Y-91188777D01*
X151484599Y-91205253D01*
X151464893Y-91219868D01*
X151443850Y-91232480D01*
X151421671Y-91242970D01*
X151398572Y-91251235D01*
X151374773Y-91257196D01*
X151350505Y-91260796D01*
X151326001Y-91262000D01*
X150425999Y-91262000D01*
X150401495Y-91260796D01*
X150377227Y-91257196D01*
X150353428Y-91251235D01*
X150330329Y-91242970D01*
X150308150Y-91232480D01*
X150287107Y-91219868D01*
X150267401Y-91205253D01*
X150249223Y-91188777D01*
X150232747Y-91170599D01*
X150218132Y-91150893D01*
X150205520Y-91129850D01*
X150195030Y-91107671D01*
X150186765Y-91084572D01*
X150180804Y-91060773D01*
X150177204Y-91036505D01*
X150176000Y-91012001D01*
X150176000Y-90361999D01*
X150177204Y-90337495D01*
X150180804Y-90313227D01*
X150186765Y-90289428D01*
X150195030Y-90266329D01*
X150205520Y-90244150D01*
X150218132Y-90223107D01*
X150232747Y-90203401D01*
X150249223Y-90185223D01*
X150267401Y-90168747D01*
X150287107Y-90154132D01*
X150308150Y-90141520D01*
X150330329Y-90131030D01*
X150353428Y-90122765D01*
X150377227Y-90116804D01*
X150401495Y-90113204D01*
X150425999Y-90112000D01*
X151326001Y-90112000D01*
X151350505Y-90113204D01*
X151350505Y-90113204D01*
G37*
D11*
X150876000Y-90687000D03*
D10*
G36*
X151350505Y-88063204D02*
G01*
X151374773Y-88066804D01*
X151398572Y-88072765D01*
X151421671Y-88081030D01*
X151443850Y-88091520D01*
X151464893Y-88104132D01*
X151484599Y-88118747D01*
X151502777Y-88135223D01*
X151519253Y-88153401D01*
X151533868Y-88173107D01*
X151546480Y-88194150D01*
X151556970Y-88216329D01*
X151565235Y-88239428D01*
X151571196Y-88263227D01*
X151574796Y-88287495D01*
X151576000Y-88311999D01*
X151576000Y-88962001D01*
X151574796Y-88986505D01*
X151571196Y-89010773D01*
X151565235Y-89034572D01*
X151556970Y-89057671D01*
X151546480Y-89079850D01*
X151533868Y-89100893D01*
X151519253Y-89120599D01*
X151502777Y-89138777D01*
X151484599Y-89155253D01*
X151464893Y-89169868D01*
X151443850Y-89182480D01*
X151421671Y-89192970D01*
X151398572Y-89201235D01*
X151374773Y-89207196D01*
X151350505Y-89210796D01*
X151326001Y-89212000D01*
X150425999Y-89212000D01*
X150401495Y-89210796D01*
X150377227Y-89207196D01*
X150353428Y-89201235D01*
X150330329Y-89192970D01*
X150308150Y-89182480D01*
X150287107Y-89169868D01*
X150267401Y-89155253D01*
X150249223Y-89138777D01*
X150232747Y-89120599D01*
X150218132Y-89100893D01*
X150205520Y-89079850D01*
X150195030Y-89057671D01*
X150186765Y-89034572D01*
X150180804Y-89010773D01*
X150177204Y-88986505D01*
X150176000Y-88962001D01*
X150176000Y-88311999D01*
X150177204Y-88287495D01*
X150180804Y-88263227D01*
X150186765Y-88239428D01*
X150195030Y-88216329D01*
X150205520Y-88194150D01*
X150218132Y-88173107D01*
X150232747Y-88153401D01*
X150249223Y-88135223D01*
X150267401Y-88118747D01*
X150287107Y-88104132D01*
X150308150Y-88091520D01*
X150330329Y-88081030D01*
X150353428Y-88072765D01*
X150377227Y-88066804D01*
X150401495Y-88063204D01*
X150425999Y-88062000D01*
X151326001Y-88062000D01*
X151350505Y-88063204D01*
X151350505Y-88063204D01*
G37*
D11*
X150876000Y-88637000D03*
D10*
G36*
X142714505Y-93406204D02*
G01*
X142738773Y-93409804D01*
X142762572Y-93415765D01*
X142785671Y-93424030D01*
X142807850Y-93434520D01*
X142828893Y-93447132D01*
X142848599Y-93461747D01*
X142866777Y-93478223D01*
X142883253Y-93496401D01*
X142897868Y-93516107D01*
X142910480Y-93537150D01*
X142920970Y-93559329D01*
X142929235Y-93582428D01*
X142935196Y-93606227D01*
X142938796Y-93630495D01*
X142940000Y-93654999D01*
X142940000Y-94305001D01*
X142938796Y-94329505D01*
X142935196Y-94353773D01*
X142929235Y-94377572D01*
X142920970Y-94400671D01*
X142910480Y-94422850D01*
X142897868Y-94443893D01*
X142883253Y-94463599D01*
X142866777Y-94481777D01*
X142848599Y-94498253D01*
X142828893Y-94512868D01*
X142807850Y-94525480D01*
X142785671Y-94535970D01*
X142762572Y-94544235D01*
X142738773Y-94550196D01*
X142714505Y-94553796D01*
X142690001Y-94555000D01*
X141789999Y-94555000D01*
X141765495Y-94553796D01*
X141741227Y-94550196D01*
X141717428Y-94544235D01*
X141694329Y-94535970D01*
X141672150Y-94525480D01*
X141651107Y-94512868D01*
X141631401Y-94498253D01*
X141613223Y-94481777D01*
X141596747Y-94463599D01*
X141582132Y-94443893D01*
X141569520Y-94422850D01*
X141559030Y-94400671D01*
X141550765Y-94377572D01*
X141544804Y-94353773D01*
X141541204Y-94329505D01*
X141540000Y-94305001D01*
X141540000Y-93654999D01*
X141541204Y-93630495D01*
X141544804Y-93606227D01*
X141550765Y-93582428D01*
X141559030Y-93559329D01*
X141569520Y-93537150D01*
X141582132Y-93516107D01*
X141596747Y-93496401D01*
X141613223Y-93478223D01*
X141631401Y-93461747D01*
X141651107Y-93447132D01*
X141672150Y-93434520D01*
X141694329Y-93424030D01*
X141717428Y-93415765D01*
X141741227Y-93409804D01*
X141765495Y-93406204D01*
X141789999Y-93405000D01*
X142690001Y-93405000D01*
X142714505Y-93406204D01*
X142714505Y-93406204D01*
G37*
D11*
X142240000Y-93980000D03*
D10*
G36*
X142714505Y-95456204D02*
G01*
X142738773Y-95459804D01*
X142762572Y-95465765D01*
X142785671Y-95474030D01*
X142807850Y-95484520D01*
X142828893Y-95497132D01*
X142848599Y-95511747D01*
X142866777Y-95528223D01*
X142883253Y-95546401D01*
X142897868Y-95566107D01*
X142910480Y-95587150D01*
X142920970Y-95609329D01*
X142929235Y-95632428D01*
X142935196Y-95656227D01*
X142938796Y-95680495D01*
X142940000Y-95704999D01*
X142940000Y-96355001D01*
X142938796Y-96379505D01*
X142935196Y-96403773D01*
X142929235Y-96427572D01*
X142920970Y-96450671D01*
X142910480Y-96472850D01*
X142897868Y-96493893D01*
X142883253Y-96513599D01*
X142866777Y-96531777D01*
X142848599Y-96548253D01*
X142828893Y-96562868D01*
X142807850Y-96575480D01*
X142785671Y-96585970D01*
X142762572Y-96594235D01*
X142738773Y-96600196D01*
X142714505Y-96603796D01*
X142690001Y-96605000D01*
X141789999Y-96605000D01*
X141765495Y-96603796D01*
X141741227Y-96600196D01*
X141717428Y-96594235D01*
X141694329Y-96585970D01*
X141672150Y-96575480D01*
X141651107Y-96562868D01*
X141631401Y-96548253D01*
X141613223Y-96531777D01*
X141596747Y-96513599D01*
X141582132Y-96493893D01*
X141569520Y-96472850D01*
X141559030Y-96450671D01*
X141550765Y-96427572D01*
X141544804Y-96403773D01*
X141541204Y-96379505D01*
X141540000Y-96355001D01*
X141540000Y-95704999D01*
X141541204Y-95680495D01*
X141544804Y-95656227D01*
X141550765Y-95632428D01*
X141559030Y-95609329D01*
X141569520Y-95587150D01*
X141582132Y-95566107D01*
X141596747Y-95546401D01*
X141613223Y-95528223D01*
X141631401Y-95511747D01*
X141651107Y-95497132D01*
X141672150Y-95484520D01*
X141694329Y-95474030D01*
X141717428Y-95465765D01*
X141741227Y-95459804D01*
X141765495Y-95456204D01*
X141789999Y-95455000D01*
X142690001Y-95455000D01*
X142714505Y-95456204D01*
X142714505Y-95456204D01*
G37*
D11*
X142240000Y-96030000D03*
D10*
G36*
X156577505Y-88836204D02*
G01*
X156601773Y-88839804D01*
X156625572Y-88845765D01*
X156648671Y-88854030D01*
X156670850Y-88864520D01*
X156691893Y-88877132D01*
X156711599Y-88891747D01*
X156729777Y-88908223D01*
X156746253Y-88926401D01*
X156760868Y-88946107D01*
X156773480Y-88967150D01*
X156783970Y-88989329D01*
X156792235Y-89012428D01*
X156798196Y-89036227D01*
X156801796Y-89060495D01*
X156803000Y-89084999D01*
X156803000Y-89985001D01*
X156801796Y-90009505D01*
X156798196Y-90033773D01*
X156792235Y-90057572D01*
X156783970Y-90080671D01*
X156773480Y-90102850D01*
X156760868Y-90123893D01*
X156746253Y-90143599D01*
X156729777Y-90161777D01*
X156711599Y-90178253D01*
X156691893Y-90192868D01*
X156670850Y-90205480D01*
X156648671Y-90215970D01*
X156625572Y-90224235D01*
X156601773Y-90230196D01*
X156577505Y-90233796D01*
X156553001Y-90235000D01*
X155902999Y-90235000D01*
X155878495Y-90233796D01*
X155854227Y-90230196D01*
X155830428Y-90224235D01*
X155807329Y-90215970D01*
X155785150Y-90205480D01*
X155764107Y-90192868D01*
X155744401Y-90178253D01*
X155726223Y-90161777D01*
X155709747Y-90143599D01*
X155695132Y-90123893D01*
X155682520Y-90102850D01*
X155672030Y-90080671D01*
X155663765Y-90057572D01*
X155657804Y-90033773D01*
X155654204Y-90009505D01*
X155653000Y-89985001D01*
X155653000Y-89084999D01*
X155654204Y-89060495D01*
X155657804Y-89036227D01*
X155663765Y-89012428D01*
X155672030Y-88989329D01*
X155682520Y-88967150D01*
X155695132Y-88946107D01*
X155709747Y-88926401D01*
X155726223Y-88908223D01*
X155744401Y-88891747D01*
X155764107Y-88877132D01*
X155785150Y-88864520D01*
X155807329Y-88854030D01*
X155830428Y-88845765D01*
X155854227Y-88839804D01*
X155878495Y-88836204D01*
X155902999Y-88835000D01*
X156553001Y-88835000D01*
X156577505Y-88836204D01*
X156577505Y-88836204D01*
G37*
D11*
X156228000Y-89535000D03*
D10*
G36*
X154527505Y-88836204D02*
G01*
X154551773Y-88839804D01*
X154575572Y-88845765D01*
X154598671Y-88854030D01*
X154620850Y-88864520D01*
X154641893Y-88877132D01*
X154661599Y-88891747D01*
X154679777Y-88908223D01*
X154696253Y-88926401D01*
X154710868Y-88946107D01*
X154723480Y-88967150D01*
X154733970Y-88989329D01*
X154742235Y-89012428D01*
X154748196Y-89036227D01*
X154751796Y-89060495D01*
X154753000Y-89084999D01*
X154753000Y-89985001D01*
X154751796Y-90009505D01*
X154748196Y-90033773D01*
X154742235Y-90057572D01*
X154733970Y-90080671D01*
X154723480Y-90102850D01*
X154710868Y-90123893D01*
X154696253Y-90143599D01*
X154679777Y-90161777D01*
X154661599Y-90178253D01*
X154641893Y-90192868D01*
X154620850Y-90205480D01*
X154598671Y-90215970D01*
X154575572Y-90224235D01*
X154551773Y-90230196D01*
X154527505Y-90233796D01*
X154503001Y-90235000D01*
X153852999Y-90235000D01*
X153828495Y-90233796D01*
X153804227Y-90230196D01*
X153780428Y-90224235D01*
X153757329Y-90215970D01*
X153735150Y-90205480D01*
X153714107Y-90192868D01*
X153694401Y-90178253D01*
X153676223Y-90161777D01*
X153659747Y-90143599D01*
X153645132Y-90123893D01*
X153632520Y-90102850D01*
X153622030Y-90080671D01*
X153613765Y-90057572D01*
X153607804Y-90033773D01*
X153604204Y-90009505D01*
X153603000Y-89985001D01*
X153603000Y-89084999D01*
X153604204Y-89060495D01*
X153607804Y-89036227D01*
X153613765Y-89012428D01*
X153622030Y-88989329D01*
X153632520Y-88967150D01*
X153645132Y-88946107D01*
X153659747Y-88926401D01*
X153676223Y-88908223D01*
X153694401Y-88891747D01*
X153714107Y-88877132D01*
X153735150Y-88864520D01*
X153757329Y-88854030D01*
X153780428Y-88845765D01*
X153804227Y-88839804D01*
X153828495Y-88836204D01*
X153852999Y-88835000D01*
X154503001Y-88835000D01*
X154527505Y-88836204D01*
X154527505Y-88836204D01*
G37*
D11*
X154178000Y-89535000D03*
D10*
G36*
X156804505Y-105727204D02*
G01*
X156828773Y-105730804D01*
X156852572Y-105736765D01*
X156875671Y-105745030D01*
X156897850Y-105755520D01*
X156918893Y-105768132D01*
X156938599Y-105782747D01*
X156956777Y-105799223D01*
X156973253Y-105817401D01*
X156987868Y-105837107D01*
X157000480Y-105858150D01*
X157010970Y-105880329D01*
X157019235Y-105903428D01*
X157025196Y-105927227D01*
X157028796Y-105951495D01*
X157030000Y-105975999D01*
X157030000Y-106876001D01*
X157028796Y-106900505D01*
X157025196Y-106924773D01*
X157019235Y-106948572D01*
X157010970Y-106971671D01*
X157000480Y-106993850D01*
X156987868Y-107014893D01*
X156973253Y-107034599D01*
X156956777Y-107052777D01*
X156938599Y-107069253D01*
X156918893Y-107083868D01*
X156897850Y-107096480D01*
X156875671Y-107106970D01*
X156852572Y-107115235D01*
X156828773Y-107121196D01*
X156804505Y-107124796D01*
X156780001Y-107126000D01*
X156129999Y-107126000D01*
X156105495Y-107124796D01*
X156081227Y-107121196D01*
X156057428Y-107115235D01*
X156034329Y-107106970D01*
X156012150Y-107096480D01*
X155991107Y-107083868D01*
X155971401Y-107069253D01*
X155953223Y-107052777D01*
X155936747Y-107034599D01*
X155922132Y-107014893D01*
X155909520Y-106993850D01*
X155899030Y-106971671D01*
X155890765Y-106948572D01*
X155884804Y-106924773D01*
X155881204Y-106900505D01*
X155880000Y-106876001D01*
X155880000Y-105975999D01*
X155881204Y-105951495D01*
X155884804Y-105927227D01*
X155890765Y-105903428D01*
X155899030Y-105880329D01*
X155909520Y-105858150D01*
X155922132Y-105837107D01*
X155936747Y-105817401D01*
X155953223Y-105799223D01*
X155971401Y-105782747D01*
X155991107Y-105768132D01*
X156012150Y-105755520D01*
X156034329Y-105745030D01*
X156057428Y-105736765D01*
X156081227Y-105730804D01*
X156105495Y-105727204D01*
X156129999Y-105726000D01*
X156780001Y-105726000D01*
X156804505Y-105727204D01*
X156804505Y-105727204D01*
G37*
D11*
X156455000Y-106426000D03*
D10*
G36*
X158854505Y-105727204D02*
G01*
X158878773Y-105730804D01*
X158902572Y-105736765D01*
X158925671Y-105745030D01*
X158947850Y-105755520D01*
X158968893Y-105768132D01*
X158988599Y-105782747D01*
X159006777Y-105799223D01*
X159023253Y-105817401D01*
X159037868Y-105837107D01*
X159050480Y-105858150D01*
X159060970Y-105880329D01*
X159069235Y-105903428D01*
X159075196Y-105927227D01*
X159078796Y-105951495D01*
X159080000Y-105975999D01*
X159080000Y-106876001D01*
X159078796Y-106900505D01*
X159075196Y-106924773D01*
X159069235Y-106948572D01*
X159060970Y-106971671D01*
X159050480Y-106993850D01*
X159037868Y-107014893D01*
X159023253Y-107034599D01*
X159006777Y-107052777D01*
X158988599Y-107069253D01*
X158968893Y-107083868D01*
X158947850Y-107096480D01*
X158925671Y-107106970D01*
X158902572Y-107115235D01*
X158878773Y-107121196D01*
X158854505Y-107124796D01*
X158830001Y-107126000D01*
X158179999Y-107126000D01*
X158155495Y-107124796D01*
X158131227Y-107121196D01*
X158107428Y-107115235D01*
X158084329Y-107106970D01*
X158062150Y-107096480D01*
X158041107Y-107083868D01*
X158021401Y-107069253D01*
X158003223Y-107052777D01*
X157986747Y-107034599D01*
X157972132Y-107014893D01*
X157959520Y-106993850D01*
X157949030Y-106971671D01*
X157940765Y-106948572D01*
X157934804Y-106924773D01*
X157931204Y-106900505D01*
X157930000Y-106876001D01*
X157930000Y-105975999D01*
X157931204Y-105951495D01*
X157934804Y-105927227D01*
X157940765Y-105903428D01*
X157949030Y-105880329D01*
X157959520Y-105858150D01*
X157972132Y-105837107D01*
X157986747Y-105817401D01*
X158003223Y-105799223D01*
X158021401Y-105782747D01*
X158041107Y-105768132D01*
X158062150Y-105755520D01*
X158084329Y-105745030D01*
X158107428Y-105736765D01*
X158131227Y-105730804D01*
X158155495Y-105727204D01*
X158179999Y-105726000D01*
X158830001Y-105726000D01*
X158854505Y-105727204D01*
X158854505Y-105727204D01*
G37*
D11*
X158505000Y-106426000D03*
D10*
G36*
X156804505Y-103187204D02*
G01*
X156828773Y-103190804D01*
X156852572Y-103196765D01*
X156875671Y-103205030D01*
X156897850Y-103215520D01*
X156918893Y-103228132D01*
X156938599Y-103242747D01*
X156956777Y-103259223D01*
X156973253Y-103277401D01*
X156987868Y-103297107D01*
X157000480Y-103318150D01*
X157010970Y-103340329D01*
X157019235Y-103363428D01*
X157025196Y-103387227D01*
X157028796Y-103411495D01*
X157030000Y-103435999D01*
X157030000Y-104336001D01*
X157028796Y-104360505D01*
X157025196Y-104384773D01*
X157019235Y-104408572D01*
X157010970Y-104431671D01*
X157000480Y-104453850D01*
X156987868Y-104474893D01*
X156973253Y-104494599D01*
X156956777Y-104512777D01*
X156938599Y-104529253D01*
X156918893Y-104543868D01*
X156897850Y-104556480D01*
X156875671Y-104566970D01*
X156852572Y-104575235D01*
X156828773Y-104581196D01*
X156804505Y-104584796D01*
X156780001Y-104586000D01*
X156129999Y-104586000D01*
X156105495Y-104584796D01*
X156081227Y-104581196D01*
X156057428Y-104575235D01*
X156034329Y-104566970D01*
X156012150Y-104556480D01*
X155991107Y-104543868D01*
X155971401Y-104529253D01*
X155953223Y-104512777D01*
X155936747Y-104494599D01*
X155922132Y-104474893D01*
X155909520Y-104453850D01*
X155899030Y-104431671D01*
X155890765Y-104408572D01*
X155884804Y-104384773D01*
X155881204Y-104360505D01*
X155880000Y-104336001D01*
X155880000Y-103435999D01*
X155881204Y-103411495D01*
X155884804Y-103387227D01*
X155890765Y-103363428D01*
X155899030Y-103340329D01*
X155909520Y-103318150D01*
X155922132Y-103297107D01*
X155936747Y-103277401D01*
X155953223Y-103259223D01*
X155971401Y-103242747D01*
X155991107Y-103228132D01*
X156012150Y-103215520D01*
X156034329Y-103205030D01*
X156057428Y-103196765D01*
X156081227Y-103190804D01*
X156105495Y-103187204D01*
X156129999Y-103186000D01*
X156780001Y-103186000D01*
X156804505Y-103187204D01*
X156804505Y-103187204D01*
G37*
D11*
X156455000Y-103886000D03*
D10*
G36*
X158854505Y-103187204D02*
G01*
X158878773Y-103190804D01*
X158902572Y-103196765D01*
X158925671Y-103205030D01*
X158947850Y-103215520D01*
X158968893Y-103228132D01*
X158988599Y-103242747D01*
X159006777Y-103259223D01*
X159023253Y-103277401D01*
X159037868Y-103297107D01*
X159050480Y-103318150D01*
X159060970Y-103340329D01*
X159069235Y-103363428D01*
X159075196Y-103387227D01*
X159078796Y-103411495D01*
X159080000Y-103435999D01*
X159080000Y-104336001D01*
X159078796Y-104360505D01*
X159075196Y-104384773D01*
X159069235Y-104408572D01*
X159060970Y-104431671D01*
X159050480Y-104453850D01*
X159037868Y-104474893D01*
X159023253Y-104494599D01*
X159006777Y-104512777D01*
X158988599Y-104529253D01*
X158968893Y-104543868D01*
X158947850Y-104556480D01*
X158925671Y-104566970D01*
X158902572Y-104575235D01*
X158878773Y-104581196D01*
X158854505Y-104584796D01*
X158830001Y-104586000D01*
X158179999Y-104586000D01*
X158155495Y-104584796D01*
X158131227Y-104581196D01*
X158107428Y-104575235D01*
X158084329Y-104566970D01*
X158062150Y-104556480D01*
X158041107Y-104543868D01*
X158021401Y-104529253D01*
X158003223Y-104512777D01*
X157986747Y-104494599D01*
X157972132Y-104474893D01*
X157959520Y-104453850D01*
X157949030Y-104431671D01*
X157940765Y-104408572D01*
X157934804Y-104384773D01*
X157931204Y-104360505D01*
X157930000Y-104336001D01*
X157930000Y-103435999D01*
X157931204Y-103411495D01*
X157934804Y-103387227D01*
X157940765Y-103363428D01*
X157949030Y-103340329D01*
X157959520Y-103318150D01*
X157972132Y-103297107D01*
X157986747Y-103277401D01*
X158003223Y-103259223D01*
X158021401Y-103242747D01*
X158041107Y-103228132D01*
X158062150Y-103215520D01*
X158084329Y-103205030D01*
X158107428Y-103196765D01*
X158131227Y-103190804D01*
X158155495Y-103187204D01*
X158179999Y-103186000D01*
X158830001Y-103186000D01*
X158854505Y-103187204D01*
X158854505Y-103187204D01*
G37*
D11*
X158505000Y-103886000D03*
D10*
G36*
X154518505Y-85915204D02*
G01*
X154542773Y-85918804D01*
X154566572Y-85924765D01*
X154589671Y-85933030D01*
X154611850Y-85943520D01*
X154632893Y-85956132D01*
X154652599Y-85970747D01*
X154670777Y-85987223D01*
X154687253Y-86005401D01*
X154701868Y-86025107D01*
X154714480Y-86046150D01*
X154724970Y-86068329D01*
X154733235Y-86091428D01*
X154739196Y-86115227D01*
X154742796Y-86139495D01*
X154744000Y-86163999D01*
X154744000Y-87064001D01*
X154742796Y-87088505D01*
X154739196Y-87112773D01*
X154733235Y-87136572D01*
X154724970Y-87159671D01*
X154714480Y-87181850D01*
X154701868Y-87202893D01*
X154687253Y-87222599D01*
X154670777Y-87240777D01*
X154652599Y-87257253D01*
X154632893Y-87271868D01*
X154611850Y-87284480D01*
X154589671Y-87294970D01*
X154566572Y-87303235D01*
X154542773Y-87309196D01*
X154518505Y-87312796D01*
X154494001Y-87314000D01*
X153843999Y-87314000D01*
X153819495Y-87312796D01*
X153795227Y-87309196D01*
X153771428Y-87303235D01*
X153748329Y-87294970D01*
X153726150Y-87284480D01*
X153705107Y-87271868D01*
X153685401Y-87257253D01*
X153667223Y-87240777D01*
X153650747Y-87222599D01*
X153636132Y-87202893D01*
X153623520Y-87181850D01*
X153613030Y-87159671D01*
X153604765Y-87136572D01*
X153598804Y-87112773D01*
X153595204Y-87088505D01*
X153594000Y-87064001D01*
X153594000Y-86163999D01*
X153595204Y-86139495D01*
X153598804Y-86115227D01*
X153604765Y-86091428D01*
X153613030Y-86068329D01*
X153623520Y-86046150D01*
X153636132Y-86025107D01*
X153650747Y-86005401D01*
X153667223Y-85987223D01*
X153685401Y-85970747D01*
X153705107Y-85956132D01*
X153726150Y-85943520D01*
X153748329Y-85933030D01*
X153771428Y-85924765D01*
X153795227Y-85918804D01*
X153819495Y-85915204D01*
X153843999Y-85914000D01*
X154494001Y-85914000D01*
X154518505Y-85915204D01*
X154518505Y-85915204D01*
G37*
D11*
X154169000Y-86614000D03*
D10*
G36*
X156568505Y-85915204D02*
G01*
X156592773Y-85918804D01*
X156616572Y-85924765D01*
X156639671Y-85933030D01*
X156661850Y-85943520D01*
X156682893Y-85956132D01*
X156702599Y-85970747D01*
X156720777Y-85987223D01*
X156737253Y-86005401D01*
X156751868Y-86025107D01*
X156764480Y-86046150D01*
X156774970Y-86068329D01*
X156783235Y-86091428D01*
X156789196Y-86115227D01*
X156792796Y-86139495D01*
X156794000Y-86163999D01*
X156794000Y-87064001D01*
X156792796Y-87088505D01*
X156789196Y-87112773D01*
X156783235Y-87136572D01*
X156774970Y-87159671D01*
X156764480Y-87181850D01*
X156751868Y-87202893D01*
X156737253Y-87222599D01*
X156720777Y-87240777D01*
X156702599Y-87257253D01*
X156682893Y-87271868D01*
X156661850Y-87284480D01*
X156639671Y-87294970D01*
X156616572Y-87303235D01*
X156592773Y-87309196D01*
X156568505Y-87312796D01*
X156544001Y-87314000D01*
X155893999Y-87314000D01*
X155869495Y-87312796D01*
X155845227Y-87309196D01*
X155821428Y-87303235D01*
X155798329Y-87294970D01*
X155776150Y-87284480D01*
X155755107Y-87271868D01*
X155735401Y-87257253D01*
X155717223Y-87240777D01*
X155700747Y-87222599D01*
X155686132Y-87202893D01*
X155673520Y-87181850D01*
X155663030Y-87159671D01*
X155654765Y-87136572D01*
X155648804Y-87112773D01*
X155645204Y-87088505D01*
X155644000Y-87064001D01*
X155644000Y-86163999D01*
X155645204Y-86139495D01*
X155648804Y-86115227D01*
X155654765Y-86091428D01*
X155663030Y-86068329D01*
X155673520Y-86046150D01*
X155686132Y-86025107D01*
X155700747Y-86005401D01*
X155717223Y-85987223D01*
X155735401Y-85970747D01*
X155755107Y-85956132D01*
X155776150Y-85943520D01*
X155798329Y-85933030D01*
X155821428Y-85924765D01*
X155845227Y-85918804D01*
X155869495Y-85915204D01*
X155893999Y-85914000D01*
X156544001Y-85914000D01*
X156568505Y-85915204D01*
X156568505Y-85915204D01*
G37*
D11*
X156219000Y-86614000D03*
D12*
X158369000Y-86614000D03*
X158369000Y-84514000D03*
D10*
G36*
X158854505Y-98107204D02*
G01*
X158878773Y-98110804D01*
X158902572Y-98116765D01*
X158925671Y-98125030D01*
X158947850Y-98135520D01*
X158968893Y-98148132D01*
X158988599Y-98162747D01*
X159006777Y-98179223D01*
X159023253Y-98197401D01*
X159037868Y-98217107D01*
X159050480Y-98238150D01*
X159060970Y-98260329D01*
X159069235Y-98283428D01*
X159075196Y-98307227D01*
X159078796Y-98331495D01*
X159080000Y-98355999D01*
X159080000Y-99256001D01*
X159078796Y-99280505D01*
X159075196Y-99304773D01*
X159069235Y-99328572D01*
X159060970Y-99351671D01*
X159050480Y-99373850D01*
X159037868Y-99394893D01*
X159023253Y-99414599D01*
X159006777Y-99432777D01*
X158988599Y-99449253D01*
X158968893Y-99463868D01*
X158947850Y-99476480D01*
X158925671Y-99486970D01*
X158902572Y-99495235D01*
X158878773Y-99501196D01*
X158854505Y-99504796D01*
X158830001Y-99506000D01*
X158179999Y-99506000D01*
X158155495Y-99504796D01*
X158131227Y-99501196D01*
X158107428Y-99495235D01*
X158084329Y-99486970D01*
X158062150Y-99476480D01*
X158041107Y-99463868D01*
X158021401Y-99449253D01*
X158003223Y-99432777D01*
X157986747Y-99414599D01*
X157972132Y-99394893D01*
X157959520Y-99373850D01*
X157949030Y-99351671D01*
X157940765Y-99328572D01*
X157934804Y-99304773D01*
X157931204Y-99280505D01*
X157930000Y-99256001D01*
X157930000Y-98355999D01*
X157931204Y-98331495D01*
X157934804Y-98307227D01*
X157940765Y-98283428D01*
X157949030Y-98260329D01*
X157959520Y-98238150D01*
X157972132Y-98217107D01*
X157986747Y-98197401D01*
X158003223Y-98179223D01*
X158021401Y-98162747D01*
X158041107Y-98148132D01*
X158062150Y-98135520D01*
X158084329Y-98125030D01*
X158107428Y-98116765D01*
X158131227Y-98110804D01*
X158155495Y-98107204D01*
X158179999Y-98106000D01*
X158830001Y-98106000D01*
X158854505Y-98107204D01*
X158854505Y-98107204D01*
G37*
D11*
X158505000Y-98806000D03*
D10*
G36*
X156804505Y-98107204D02*
G01*
X156828773Y-98110804D01*
X156852572Y-98116765D01*
X156875671Y-98125030D01*
X156897850Y-98135520D01*
X156918893Y-98148132D01*
X156938599Y-98162747D01*
X156956777Y-98179223D01*
X156973253Y-98197401D01*
X156987868Y-98217107D01*
X157000480Y-98238150D01*
X157010970Y-98260329D01*
X157019235Y-98283428D01*
X157025196Y-98307227D01*
X157028796Y-98331495D01*
X157030000Y-98355999D01*
X157030000Y-99256001D01*
X157028796Y-99280505D01*
X157025196Y-99304773D01*
X157019235Y-99328572D01*
X157010970Y-99351671D01*
X157000480Y-99373850D01*
X156987868Y-99394893D01*
X156973253Y-99414599D01*
X156956777Y-99432777D01*
X156938599Y-99449253D01*
X156918893Y-99463868D01*
X156897850Y-99476480D01*
X156875671Y-99486970D01*
X156852572Y-99495235D01*
X156828773Y-99501196D01*
X156804505Y-99504796D01*
X156780001Y-99506000D01*
X156129999Y-99506000D01*
X156105495Y-99504796D01*
X156081227Y-99501196D01*
X156057428Y-99495235D01*
X156034329Y-99486970D01*
X156012150Y-99476480D01*
X155991107Y-99463868D01*
X155971401Y-99449253D01*
X155953223Y-99432777D01*
X155936747Y-99414599D01*
X155922132Y-99394893D01*
X155909520Y-99373850D01*
X155899030Y-99351671D01*
X155890765Y-99328572D01*
X155884804Y-99304773D01*
X155881204Y-99280505D01*
X155880000Y-99256001D01*
X155880000Y-98355999D01*
X155881204Y-98331495D01*
X155884804Y-98307227D01*
X155890765Y-98283428D01*
X155899030Y-98260329D01*
X155909520Y-98238150D01*
X155922132Y-98217107D01*
X155936747Y-98197401D01*
X155953223Y-98179223D01*
X155971401Y-98162747D01*
X155991107Y-98148132D01*
X156012150Y-98135520D01*
X156034329Y-98125030D01*
X156057428Y-98116765D01*
X156081227Y-98110804D01*
X156105495Y-98107204D01*
X156129999Y-98106000D01*
X156780001Y-98106000D01*
X156804505Y-98107204D01*
X156804505Y-98107204D01*
G37*
D11*
X156455000Y-98806000D03*
D10*
G36*
X156804505Y-93027204D02*
G01*
X156828773Y-93030804D01*
X156852572Y-93036765D01*
X156875671Y-93045030D01*
X156897850Y-93055520D01*
X156918893Y-93068132D01*
X156938599Y-93082747D01*
X156956777Y-93099223D01*
X156973253Y-93117401D01*
X156987868Y-93137107D01*
X157000480Y-93158150D01*
X157010970Y-93180329D01*
X157019235Y-93203428D01*
X157025196Y-93227227D01*
X157028796Y-93251495D01*
X157030000Y-93275999D01*
X157030000Y-94176001D01*
X157028796Y-94200505D01*
X157025196Y-94224773D01*
X157019235Y-94248572D01*
X157010970Y-94271671D01*
X157000480Y-94293850D01*
X156987868Y-94314893D01*
X156973253Y-94334599D01*
X156956777Y-94352777D01*
X156938599Y-94369253D01*
X156918893Y-94383868D01*
X156897850Y-94396480D01*
X156875671Y-94406970D01*
X156852572Y-94415235D01*
X156828773Y-94421196D01*
X156804505Y-94424796D01*
X156780001Y-94426000D01*
X156129999Y-94426000D01*
X156105495Y-94424796D01*
X156081227Y-94421196D01*
X156057428Y-94415235D01*
X156034329Y-94406970D01*
X156012150Y-94396480D01*
X155991107Y-94383868D01*
X155971401Y-94369253D01*
X155953223Y-94352777D01*
X155936747Y-94334599D01*
X155922132Y-94314893D01*
X155909520Y-94293850D01*
X155899030Y-94271671D01*
X155890765Y-94248572D01*
X155884804Y-94224773D01*
X155881204Y-94200505D01*
X155880000Y-94176001D01*
X155880000Y-93275999D01*
X155881204Y-93251495D01*
X155884804Y-93227227D01*
X155890765Y-93203428D01*
X155899030Y-93180329D01*
X155909520Y-93158150D01*
X155922132Y-93137107D01*
X155936747Y-93117401D01*
X155953223Y-93099223D01*
X155971401Y-93082747D01*
X155991107Y-93068132D01*
X156012150Y-93055520D01*
X156034329Y-93045030D01*
X156057428Y-93036765D01*
X156081227Y-93030804D01*
X156105495Y-93027204D01*
X156129999Y-93026000D01*
X156780001Y-93026000D01*
X156804505Y-93027204D01*
X156804505Y-93027204D01*
G37*
D11*
X156455000Y-93726000D03*
D10*
G36*
X158854505Y-93027204D02*
G01*
X158878773Y-93030804D01*
X158902572Y-93036765D01*
X158925671Y-93045030D01*
X158947850Y-93055520D01*
X158968893Y-93068132D01*
X158988599Y-93082747D01*
X159006777Y-93099223D01*
X159023253Y-93117401D01*
X159037868Y-93137107D01*
X159050480Y-93158150D01*
X159060970Y-93180329D01*
X159069235Y-93203428D01*
X159075196Y-93227227D01*
X159078796Y-93251495D01*
X159080000Y-93275999D01*
X159080000Y-94176001D01*
X159078796Y-94200505D01*
X159075196Y-94224773D01*
X159069235Y-94248572D01*
X159060970Y-94271671D01*
X159050480Y-94293850D01*
X159037868Y-94314893D01*
X159023253Y-94334599D01*
X159006777Y-94352777D01*
X158988599Y-94369253D01*
X158968893Y-94383868D01*
X158947850Y-94396480D01*
X158925671Y-94406970D01*
X158902572Y-94415235D01*
X158878773Y-94421196D01*
X158854505Y-94424796D01*
X158830001Y-94426000D01*
X158179999Y-94426000D01*
X158155495Y-94424796D01*
X158131227Y-94421196D01*
X158107428Y-94415235D01*
X158084329Y-94406970D01*
X158062150Y-94396480D01*
X158041107Y-94383868D01*
X158021401Y-94369253D01*
X158003223Y-94352777D01*
X157986747Y-94334599D01*
X157972132Y-94314893D01*
X157959520Y-94293850D01*
X157949030Y-94271671D01*
X157940765Y-94248572D01*
X157934804Y-94224773D01*
X157931204Y-94200505D01*
X157930000Y-94176001D01*
X157930000Y-93275999D01*
X157931204Y-93251495D01*
X157934804Y-93227227D01*
X157940765Y-93203428D01*
X157949030Y-93180329D01*
X157959520Y-93158150D01*
X157972132Y-93137107D01*
X157986747Y-93117401D01*
X158003223Y-93099223D01*
X158021401Y-93082747D01*
X158041107Y-93068132D01*
X158062150Y-93055520D01*
X158084329Y-93045030D01*
X158107428Y-93036765D01*
X158131227Y-93030804D01*
X158155495Y-93027204D01*
X158179999Y-93026000D01*
X158830001Y-93026000D01*
X158854505Y-93027204D01*
X158854505Y-93027204D01*
G37*
D11*
X158505000Y-93726000D03*
D10*
G36*
X158854505Y-100647204D02*
G01*
X158878773Y-100650804D01*
X158902572Y-100656765D01*
X158925671Y-100665030D01*
X158947850Y-100675520D01*
X158968893Y-100688132D01*
X158988599Y-100702747D01*
X159006777Y-100719223D01*
X159023253Y-100737401D01*
X159037868Y-100757107D01*
X159050480Y-100778150D01*
X159060970Y-100800329D01*
X159069235Y-100823428D01*
X159075196Y-100847227D01*
X159078796Y-100871495D01*
X159080000Y-100895999D01*
X159080000Y-101796001D01*
X159078796Y-101820505D01*
X159075196Y-101844773D01*
X159069235Y-101868572D01*
X159060970Y-101891671D01*
X159050480Y-101913850D01*
X159037868Y-101934893D01*
X159023253Y-101954599D01*
X159006777Y-101972777D01*
X158988599Y-101989253D01*
X158968893Y-102003868D01*
X158947850Y-102016480D01*
X158925671Y-102026970D01*
X158902572Y-102035235D01*
X158878773Y-102041196D01*
X158854505Y-102044796D01*
X158830001Y-102046000D01*
X158179999Y-102046000D01*
X158155495Y-102044796D01*
X158131227Y-102041196D01*
X158107428Y-102035235D01*
X158084329Y-102026970D01*
X158062150Y-102016480D01*
X158041107Y-102003868D01*
X158021401Y-101989253D01*
X158003223Y-101972777D01*
X157986747Y-101954599D01*
X157972132Y-101934893D01*
X157959520Y-101913850D01*
X157949030Y-101891671D01*
X157940765Y-101868572D01*
X157934804Y-101844773D01*
X157931204Y-101820505D01*
X157930000Y-101796001D01*
X157930000Y-100895999D01*
X157931204Y-100871495D01*
X157934804Y-100847227D01*
X157940765Y-100823428D01*
X157949030Y-100800329D01*
X157959520Y-100778150D01*
X157972132Y-100757107D01*
X157986747Y-100737401D01*
X158003223Y-100719223D01*
X158021401Y-100702747D01*
X158041107Y-100688132D01*
X158062150Y-100675520D01*
X158084329Y-100665030D01*
X158107428Y-100656765D01*
X158131227Y-100650804D01*
X158155495Y-100647204D01*
X158179999Y-100646000D01*
X158830001Y-100646000D01*
X158854505Y-100647204D01*
X158854505Y-100647204D01*
G37*
D11*
X158505000Y-101346000D03*
D10*
G36*
X156804505Y-100647204D02*
G01*
X156828773Y-100650804D01*
X156852572Y-100656765D01*
X156875671Y-100665030D01*
X156897850Y-100675520D01*
X156918893Y-100688132D01*
X156938599Y-100702747D01*
X156956777Y-100719223D01*
X156973253Y-100737401D01*
X156987868Y-100757107D01*
X157000480Y-100778150D01*
X157010970Y-100800329D01*
X157019235Y-100823428D01*
X157025196Y-100847227D01*
X157028796Y-100871495D01*
X157030000Y-100895999D01*
X157030000Y-101796001D01*
X157028796Y-101820505D01*
X157025196Y-101844773D01*
X157019235Y-101868572D01*
X157010970Y-101891671D01*
X157000480Y-101913850D01*
X156987868Y-101934893D01*
X156973253Y-101954599D01*
X156956777Y-101972777D01*
X156938599Y-101989253D01*
X156918893Y-102003868D01*
X156897850Y-102016480D01*
X156875671Y-102026970D01*
X156852572Y-102035235D01*
X156828773Y-102041196D01*
X156804505Y-102044796D01*
X156780001Y-102046000D01*
X156129999Y-102046000D01*
X156105495Y-102044796D01*
X156081227Y-102041196D01*
X156057428Y-102035235D01*
X156034329Y-102026970D01*
X156012150Y-102016480D01*
X155991107Y-102003868D01*
X155971401Y-101989253D01*
X155953223Y-101972777D01*
X155936747Y-101954599D01*
X155922132Y-101934893D01*
X155909520Y-101913850D01*
X155899030Y-101891671D01*
X155890765Y-101868572D01*
X155884804Y-101844773D01*
X155881204Y-101820505D01*
X155880000Y-101796001D01*
X155880000Y-100895999D01*
X155881204Y-100871495D01*
X155884804Y-100847227D01*
X155890765Y-100823428D01*
X155899030Y-100800329D01*
X155909520Y-100778150D01*
X155922132Y-100757107D01*
X155936747Y-100737401D01*
X155953223Y-100719223D01*
X155971401Y-100702747D01*
X155991107Y-100688132D01*
X156012150Y-100675520D01*
X156034329Y-100665030D01*
X156057428Y-100656765D01*
X156081227Y-100650804D01*
X156105495Y-100647204D01*
X156129999Y-100646000D01*
X156780001Y-100646000D01*
X156804505Y-100647204D01*
X156804505Y-100647204D01*
G37*
D11*
X156455000Y-101346000D03*
D10*
G36*
X148556505Y-84969704D02*
G01*
X148580773Y-84973304D01*
X148604572Y-84979265D01*
X148627671Y-84987530D01*
X148649850Y-84998020D01*
X148670893Y-85010632D01*
X148690599Y-85025247D01*
X148708777Y-85041723D01*
X148725253Y-85059901D01*
X148739868Y-85079607D01*
X148752480Y-85100650D01*
X148762970Y-85122829D01*
X148771235Y-85145928D01*
X148777196Y-85169727D01*
X148780796Y-85193995D01*
X148782000Y-85218499D01*
X148782000Y-85868501D01*
X148780796Y-85893005D01*
X148777196Y-85917273D01*
X148771235Y-85941072D01*
X148762970Y-85964171D01*
X148752480Y-85986350D01*
X148739868Y-86007393D01*
X148725253Y-86027099D01*
X148708777Y-86045277D01*
X148690599Y-86061753D01*
X148670893Y-86076368D01*
X148649850Y-86088980D01*
X148627671Y-86099470D01*
X148604572Y-86107735D01*
X148580773Y-86113696D01*
X148556505Y-86117296D01*
X148532001Y-86118500D01*
X147631999Y-86118500D01*
X147607495Y-86117296D01*
X147583227Y-86113696D01*
X147559428Y-86107735D01*
X147536329Y-86099470D01*
X147514150Y-86088980D01*
X147493107Y-86076368D01*
X147473401Y-86061753D01*
X147455223Y-86045277D01*
X147438747Y-86027099D01*
X147424132Y-86007393D01*
X147411520Y-85986350D01*
X147401030Y-85964171D01*
X147392765Y-85941072D01*
X147386804Y-85917273D01*
X147383204Y-85893005D01*
X147382000Y-85868501D01*
X147382000Y-85218499D01*
X147383204Y-85193995D01*
X147386804Y-85169727D01*
X147392765Y-85145928D01*
X147401030Y-85122829D01*
X147411520Y-85100650D01*
X147424132Y-85079607D01*
X147438747Y-85059901D01*
X147455223Y-85041723D01*
X147473401Y-85025247D01*
X147493107Y-85010632D01*
X147514150Y-84998020D01*
X147536329Y-84987530D01*
X147559428Y-84979265D01*
X147583227Y-84973304D01*
X147607495Y-84969704D01*
X147631999Y-84968500D01*
X148532001Y-84968500D01*
X148556505Y-84969704D01*
X148556505Y-84969704D01*
G37*
D11*
X148082000Y-85543500D03*
D10*
G36*
X148556505Y-82919704D02*
G01*
X148580773Y-82923304D01*
X148604572Y-82929265D01*
X148627671Y-82937530D01*
X148649850Y-82948020D01*
X148670893Y-82960632D01*
X148690599Y-82975247D01*
X148708777Y-82991723D01*
X148725253Y-83009901D01*
X148739868Y-83029607D01*
X148752480Y-83050650D01*
X148762970Y-83072829D01*
X148771235Y-83095928D01*
X148777196Y-83119727D01*
X148780796Y-83143995D01*
X148782000Y-83168499D01*
X148782000Y-83818501D01*
X148780796Y-83843005D01*
X148777196Y-83867273D01*
X148771235Y-83891072D01*
X148762970Y-83914171D01*
X148752480Y-83936350D01*
X148739868Y-83957393D01*
X148725253Y-83977099D01*
X148708777Y-83995277D01*
X148690599Y-84011753D01*
X148670893Y-84026368D01*
X148649850Y-84038980D01*
X148627671Y-84049470D01*
X148604572Y-84057735D01*
X148580773Y-84063696D01*
X148556505Y-84067296D01*
X148532001Y-84068500D01*
X147631999Y-84068500D01*
X147607495Y-84067296D01*
X147583227Y-84063696D01*
X147559428Y-84057735D01*
X147536329Y-84049470D01*
X147514150Y-84038980D01*
X147493107Y-84026368D01*
X147473401Y-84011753D01*
X147455223Y-83995277D01*
X147438747Y-83977099D01*
X147424132Y-83957393D01*
X147411520Y-83936350D01*
X147401030Y-83914171D01*
X147392765Y-83891072D01*
X147386804Y-83867273D01*
X147383204Y-83843005D01*
X147382000Y-83818501D01*
X147382000Y-83168499D01*
X147383204Y-83143995D01*
X147386804Y-83119727D01*
X147392765Y-83095928D01*
X147401030Y-83072829D01*
X147411520Y-83050650D01*
X147424132Y-83029607D01*
X147438747Y-83009901D01*
X147455223Y-82991723D01*
X147473401Y-82975247D01*
X147493107Y-82960632D01*
X147514150Y-82948020D01*
X147536329Y-82937530D01*
X147559428Y-82929265D01*
X147583227Y-82923304D01*
X147607495Y-82919704D01*
X147631999Y-82918500D01*
X148532001Y-82918500D01*
X148556505Y-82919704D01*
X148556505Y-82919704D01*
G37*
D11*
X148082000Y-83493500D03*
D10*
G36*
X148556505Y-88072204D02*
G01*
X148580773Y-88075804D01*
X148604572Y-88081765D01*
X148627671Y-88090030D01*
X148649850Y-88100520D01*
X148670893Y-88113132D01*
X148690599Y-88127747D01*
X148708777Y-88144223D01*
X148725253Y-88162401D01*
X148739868Y-88182107D01*
X148752480Y-88203150D01*
X148762970Y-88225329D01*
X148771235Y-88248428D01*
X148777196Y-88272227D01*
X148780796Y-88296495D01*
X148782000Y-88320999D01*
X148782000Y-88971001D01*
X148780796Y-88995505D01*
X148777196Y-89019773D01*
X148771235Y-89043572D01*
X148762970Y-89066671D01*
X148752480Y-89088850D01*
X148739868Y-89109893D01*
X148725253Y-89129599D01*
X148708777Y-89147777D01*
X148690599Y-89164253D01*
X148670893Y-89178868D01*
X148649850Y-89191480D01*
X148627671Y-89201970D01*
X148604572Y-89210235D01*
X148580773Y-89216196D01*
X148556505Y-89219796D01*
X148532001Y-89221000D01*
X147631999Y-89221000D01*
X147607495Y-89219796D01*
X147583227Y-89216196D01*
X147559428Y-89210235D01*
X147536329Y-89201970D01*
X147514150Y-89191480D01*
X147493107Y-89178868D01*
X147473401Y-89164253D01*
X147455223Y-89147777D01*
X147438747Y-89129599D01*
X147424132Y-89109893D01*
X147411520Y-89088850D01*
X147401030Y-89066671D01*
X147392765Y-89043572D01*
X147386804Y-89019773D01*
X147383204Y-88995505D01*
X147382000Y-88971001D01*
X147382000Y-88320999D01*
X147383204Y-88296495D01*
X147386804Y-88272227D01*
X147392765Y-88248428D01*
X147401030Y-88225329D01*
X147411520Y-88203150D01*
X147424132Y-88182107D01*
X147438747Y-88162401D01*
X147455223Y-88144223D01*
X147473401Y-88127747D01*
X147493107Y-88113132D01*
X147514150Y-88100520D01*
X147536329Y-88090030D01*
X147559428Y-88081765D01*
X147583227Y-88075804D01*
X147607495Y-88072204D01*
X147631999Y-88071000D01*
X148532001Y-88071000D01*
X148556505Y-88072204D01*
X148556505Y-88072204D01*
G37*
D11*
X148082000Y-88646000D03*
D10*
G36*
X148556505Y-90122204D02*
G01*
X148580773Y-90125804D01*
X148604572Y-90131765D01*
X148627671Y-90140030D01*
X148649850Y-90150520D01*
X148670893Y-90163132D01*
X148690599Y-90177747D01*
X148708777Y-90194223D01*
X148725253Y-90212401D01*
X148739868Y-90232107D01*
X148752480Y-90253150D01*
X148762970Y-90275329D01*
X148771235Y-90298428D01*
X148777196Y-90322227D01*
X148780796Y-90346495D01*
X148782000Y-90370999D01*
X148782000Y-91021001D01*
X148780796Y-91045505D01*
X148777196Y-91069773D01*
X148771235Y-91093572D01*
X148762970Y-91116671D01*
X148752480Y-91138850D01*
X148739868Y-91159893D01*
X148725253Y-91179599D01*
X148708777Y-91197777D01*
X148690599Y-91214253D01*
X148670893Y-91228868D01*
X148649850Y-91241480D01*
X148627671Y-91251970D01*
X148604572Y-91260235D01*
X148580773Y-91266196D01*
X148556505Y-91269796D01*
X148532001Y-91271000D01*
X147631999Y-91271000D01*
X147607495Y-91269796D01*
X147583227Y-91266196D01*
X147559428Y-91260235D01*
X147536329Y-91251970D01*
X147514150Y-91241480D01*
X147493107Y-91228868D01*
X147473401Y-91214253D01*
X147455223Y-91197777D01*
X147438747Y-91179599D01*
X147424132Y-91159893D01*
X147411520Y-91138850D01*
X147401030Y-91116671D01*
X147392765Y-91093572D01*
X147386804Y-91069773D01*
X147383204Y-91045505D01*
X147382000Y-91021001D01*
X147382000Y-90370999D01*
X147383204Y-90346495D01*
X147386804Y-90322227D01*
X147392765Y-90298428D01*
X147401030Y-90275329D01*
X147411520Y-90253150D01*
X147424132Y-90232107D01*
X147438747Y-90212401D01*
X147455223Y-90194223D01*
X147473401Y-90177747D01*
X147493107Y-90163132D01*
X147514150Y-90150520D01*
X147536329Y-90140030D01*
X147559428Y-90131765D01*
X147583227Y-90125804D01*
X147607495Y-90122204D01*
X147631999Y-90121000D01*
X148532001Y-90121000D01*
X148556505Y-90122204D01*
X148556505Y-90122204D01*
G37*
D11*
X148082000Y-90696000D03*
D10*
G36*
X156505005Y-81533704D02*
G01*
X156529273Y-81537304D01*
X156553072Y-81543265D01*
X156576171Y-81551530D01*
X156598350Y-81562020D01*
X156619393Y-81574632D01*
X156639099Y-81589247D01*
X156657277Y-81605723D01*
X156673753Y-81623901D01*
X156688368Y-81643607D01*
X156700980Y-81664650D01*
X156711470Y-81686829D01*
X156719735Y-81709928D01*
X156725696Y-81733727D01*
X156729296Y-81757995D01*
X156730500Y-81782499D01*
X156730500Y-82682501D01*
X156729296Y-82707005D01*
X156725696Y-82731273D01*
X156719735Y-82755072D01*
X156711470Y-82778171D01*
X156700980Y-82800350D01*
X156688368Y-82821393D01*
X156673753Y-82841099D01*
X156657277Y-82859277D01*
X156639099Y-82875753D01*
X156619393Y-82890368D01*
X156598350Y-82902980D01*
X156576171Y-82913470D01*
X156553072Y-82921735D01*
X156529273Y-82927696D01*
X156505005Y-82931296D01*
X156480501Y-82932500D01*
X155830499Y-82932500D01*
X155805995Y-82931296D01*
X155781727Y-82927696D01*
X155757928Y-82921735D01*
X155734829Y-82913470D01*
X155712650Y-82902980D01*
X155691607Y-82890368D01*
X155671901Y-82875753D01*
X155653723Y-82859277D01*
X155637247Y-82841099D01*
X155622632Y-82821393D01*
X155610020Y-82800350D01*
X155599530Y-82778171D01*
X155591265Y-82755072D01*
X155585304Y-82731273D01*
X155581704Y-82707005D01*
X155580500Y-82682501D01*
X155580500Y-81782499D01*
X155581704Y-81757995D01*
X155585304Y-81733727D01*
X155591265Y-81709928D01*
X155599530Y-81686829D01*
X155610020Y-81664650D01*
X155622632Y-81643607D01*
X155637247Y-81623901D01*
X155653723Y-81605723D01*
X155671901Y-81589247D01*
X155691607Y-81574632D01*
X155712650Y-81562020D01*
X155734829Y-81551530D01*
X155757928Y-81543265D01*
X155781727Y-81537304D01*
X155805995Y-81533704D01*
X155830499Y-81532500D01*
X156480501Y-81532500D01*
X156505005Y-81533704D01*
X156505005Y-81533704D01*
G37*
D11*
X156155500Y-82232500D03*
D10*
G36*
X154455005Y-81533704D02*
G01*
X154479273Y-81537304D01*
X154503072Y-81543265D01*
X154526171Y-81551530D01*
X154548350Y-81562020D01*
X154569393Y-81574632D01*
X154589099Y-81589247D01*
X154607277Y-81605723D01*
X154623753Y-81623901D01*
X154638368Y-81643607D01*
X154650980Y-81664650D01*
X154661470Y-81686829D01*
X154669735Y-81709928D01*
X154675696Y-81733727D01*
X154679296Y-81757995D01*
X154680500Y-81782499D01*
X154680500Y-82682501D01*
X154679296Y-82707005D01*
X154675696Y-82731273D01*
X154669735Y-82755072D01*
X154661470Y-82778171D01*
X154650980Y-82800350D01*
X154638368Y-82821393D01*
X154623753Y-82841099D01*
X154607277Y-82859277D01*
X154589099Y-82875753D01*
X154569393Y-82890368D01*
X154548350Y-82902980D01*
X154526171Y-82913470D01*
X154503072Y-82921735D01*
X154479273Y-82927696D01*
X154455005Y-82931296D01*
X154430501Y-82932500D01*
X153780499Y-82932500D01*
X153755995Y-82931296D01*
X153731727Y-82927696D01*
X153707928Y-82921735D01*
X153684829Y-82913470D01*
X153662650Y-82902980D01*
X153641607Y-82890368D01*
X153621901Y-82875753D01*
X153603723Y-82859277D01*
X153587247Y-82841099D01*
X153572632Y-82821393D01*
X153560020Y-82800350D01*
X153549530Y-82778171D01*
X153541265Y-82755072D01*
X153535304Y-82731273D01*
X153531704Y-82707005D01*
X153530500Y-82682501D01*
X153530500Y-81782499D01*
X153531704Y-81757995D01*
X153535304Y-81733727D01*
X153541265Y-81709928D01*
X153549530Y-81686829D01*
X153560020Y-81664650D01*
X153572632Y-81643607D01*
X153587247Y-81623901D01*
X153603723Y-81605723D01*
X153621901Y-81589247D01*
X153641607Y-81574632D01*
X153662650Y-81562020D01*
X153684829Y-81551530D01*
X153707928Y-81543265D01*
X153731727Y-81537304D01*
X153755995Y-81533704D01*
X153780499Y-81532500D01*
X154430501Y-81532500D01*
X154455005Y-81533704D01*
X154455005Y-81533704D01*
G37*
D11*
X154105500Y-82232500D03*
M02*
