G04 #@! TF.GenerationSoftware,KiCad,Pcbnew,(5.1.2)-2*
G04 #@! TF.CreationDate,2019-07-28T18:44:43-04:00*
G04 #@! TF.ProjectId,LED-Music,4c45442d-4d75-4736-9963-2e6b69636164,rev?*
G04 #@! TF.SameCoordinates,Original*
G04 #@! TF.FileFunction,Soldermask,Bot*
G04 #@! TF.FilePolarity,Negative*
%FSLAX46Y46*%
G04 Gerber Fmt 4.6, Leading zero omitted, Abs format (unit mm)*
G04 Created by KiCad (PCBNEW (5.1.2)-2) date 2019-07-28 18:44:43*
%MOMM*%
%LPD*%
G04 APERTURE LIST*
%ADD10C,2.203200*%
%ADD11C,1.600000*%
%ADD12R,1.600000X1.600000*%
%ADD13O,3.251200X1.727200*%
%ADD14C,2.082800*%
%ADD15C,2.000000*%
%ADD16R,2.000000X2.000000*%
%ADD17C,1.854200*%
%ADD18C,1.402080*%
%ADD19C,2.385060*%
%ADD20O,4.201160X2.202180*%
%ADD21O,2.202180X4.201160*%
G04 APERTURE END LIST*
D10*
X126492000Y-57150000D03*
X159512000Y-57150000D03*
X159512000Y-124460000D03*
X126492000Y-124460000D03*
D11*
X132080000Y-109220000D03*
X132080000Y-106680000D03*
X132080000Y-104140000D03*
X132080000Y-101600000D03*
X132080000Y-99060000D03*
X132080000Y-96520000D03*
X132080000Y-93980000D03*
X132080000Y-91440000D03*
X132080000Y-88900000D03*
X132080000Y-86360000D03*
X132080000Y-83820000D03*
X132080000Y-81280000D03*
X132080000Y-78740000D03*
X132080000Y-76200000D03*
X139700000Y-76200000D03*
X139700000Y-78740000D03*
X139700000Y-81280000D03*
X139700000Y-83820000D03*
X139700000Y-86360000D03*
X139700000Y-88900000D03*
X139700000Y-91440000D03*
X139700000Y-93980000D03*
X139700000Y-96520000D03*
X139700000Y-99060000D03*
X139700000Y-101600000D03*
X139700000Y-104140000D03*
X139700000Y-106680000D03*
D12*
X139700000Y-109220000D03*
D13*
X141224000Y-68834000D03*
X141224000Y-66294000D03*
X141224000Y-63754000D03*
D14*
X128270000Y-76200000D03*
X128270000Y-78740000D03*
X128270000Y-81280000D03*
X128270000Y-83820000D03*
X128270000Y-86360000D03*
X132080000Y-114300000D03*
X134620000Y-114300000D03*
X137160000Y-114300000D03*
X139700000Y-114300000D03*
X128270000Y-109220000D03*
X128270000Y-106680000D03*
X128270000Y-104140000D03*
X128270000Y-101600000D03*
X128270000Y-99060000D03*
D11*
X152654000Y-93726000D03*
X152654000Y-96266000D03*
X152654000Y-98806000D03*
X152654000Y-101346000D03*
X145034000Y-101346000D03*
X145034000Y-98806000D03*
X145034000Y-96266000D03*
D12*
X145034000Y-93726000D03*
D15*
X151916200Y-110428600D03*
X145416200Y-110428600D03*
X151916200Y-105928600D03*
D16*
X145416200Y-105928600D03*
D17*
X144018000Y-83820000D03*
X144018000Y-88900000D03*
D15*
X149352000Y-77470000D03*
X151892000Y-77470000D03*
D16*
X154432000Y-77470000D03*
D13*
X129032000Y-68580000D03*
X129032000Y-66040000D03*
X129032000Y-63500000D03*
X135128000Y-68580000D03*
X135128000Y-66040000D03*
X135128000Y-63500000D03*
D14*
X132080000Y-57912000D03*
X134620000Y-57912000D03*
X137160000Y-57912000D03*
X139700000Y-57912000D03*
D18*
X149606000Y-115397280D03*
X154604720Y-120396000D03*
X154604720Y-122895360D03*
X144607280Y-122895360D03*
X144607280Y-120396000D03*
D19*
X152105360Y-115397280D03*
X154604720Y-115397280D03*
X149606000Y-120396000D03*
X147106640Y-115397280D03*
X144607280Y-115397280D03*
D20*
X153377900Y-68409820D03*
D21*
X148376640Y-65407540D03*
D20*
X153377900Y-62108080D03*
M02*
